<svg width="20" height="12" viewBox="0 0 20 12" fill="none" xmlns="http://www.w3.org/2000/svg">
<path d="M12.7852 0.99561C12.7188 1.01514 12.5898 1.06983 12.5039 1.12061C12.418 1.17139 11 2.5503 9.34766 4.18311C7.69531 5.81592 6.02734 7.46435 5.64062 7.84717L4.93359 8.54248L3.30469 6.85107C1.48047 4.95654 1.46484 4.94482 1.01172 4.94482C0.691406 4.94482 0.535156 5.00342 0.320312 5.19873C0.0898438 5.40576 0 5.61279 0 5.94873C0 6.17529 0.0195312 6.26123 0.105469 6.42529C0.179688 6.5581 0.863281 7.29248 2.26172 8.73779C3.88281 10.4097 4.34766 10.8706 4.48828 10.9331C4.73047 11.0464 5.11328 11.0464 5.35156 10.937C5.48438 10.8745 6.51172 9.88232 9.64844 6.78076C11.9141 4.53858 13.7969 2.66748 13.832 2.62451C13.9883 2.4253 14.0391 2.26905 14.0391 1.99561C14.0391 1.56202 13.8164 1.21045 13.4453 1.05811C13.2734 0.983891 12.9492 0.952641 12.7852 0.99561Z" fill="#0E5BD9"/>
<path d="M18.7454 1.05052C18.6478 1.07786 18.5111 1.13646 18.4486 1.17943C18.3822 1.21849 16.6712 2.89427 14.6439 4.89818L10.9603 8.5388L10.7611 8.3474C10.5072 8.09349 10.2806 7.99193 9.97981 7.99584C9.55793 7.99584 9.27278 8.1599 9.07747 8.50755C8.92512 8.78099 8.91731 9.20677 9.05403 9.46849C9.10481 9.56224 9.42903 9.92552 9.77668 10.2771C10.3782 10.8865 10.4212 10.9216 10.6439 10.9841C10.9251 11.0622 11.2572 11.0193 11.4798 10.8708C11.5579 10.8161 12.6751 9.73412 13.9642 8.46068C18.8822 3.5974 19.8509 2.62474 19.9251 2.46458C20.0228 2.25365 20.0228 1.81615 19.9251 1.60521C19.7298 1.17161 19.2025 0.92552 18.7454 1.05052Z" fill="#0E5BD9"/>
</svg>
